<?xml version="1.0" standalone="no"?>
<!DOCTYPE svg PUBLIC "-//W3C//DTD SVG 20010904//EN"
 "http://www.w3.org/TR/2001/REC-SVG-20010904/DTD/svg10.dtd">
<svg version="1.0" xmlns="http://www.w3.org/2000/svg"
 width="1056.000000pt" height="594.000000pt" viewBox="0 0 1056.000000 594.000000"
 preserveAspectRatio="xMidYMid meet">

<g transform="translate(0.000000,594.000000) scale(0.100000,-0.100000)"
fill="#000000" stroke="none">
<path d="M3325 4954 c-142 -11 -486 -47 -600 -65 -265 -40 -424 -79 -322 -79
33 0 37 -3 37 -25 0 -19 -6 -26 -27 -30 -16 -3 -73 -20 -128 -38 -94 -30 -101
-34 -122 -72 -12 -22 -28 -62 -35 -90 -7 -27 -26 -69 -43 -92 -16 -23 -47 -65
-67 -95 -130 -187 -204 -286 -227 -306 -14 -12 -72 -50 -128 -83 l-103 -61 0
-135 c0 -104 -5 -153 -21 -216 -20 -78 -21 -101 -16 -472 3 -251 9 -406 16
-435 7 -26 30 -65 57 -97 49 -57 50 -61 75 -263 32 -270 170 -502 327 -551 23
-7 179 -15 402 -20 441 -9 425 -7 1485 -184 487 -81 686 -119 955 -181 63 -14
129 -27 145 -28 22 -1 47 -17 91 -59 34 -32 79 -71 102 -88 22 -16 42 -35 45
-43 5 -14 22 -18 147 -41 64 -12 125 -12 425 2 294 13 408 14 715 4 333 -10
738 -4 845 14 17 2 82 9 145 15 193 18 478 64 550 89 14 5 45 15 70 22 25 7
52 19 61 26 8 7 21 13 27 13 19 0 14 38 -5 44 -23 7 -73 54 -73 67 0 5 29 24
65 41 36 16 69 38 74 47 5 9 26 23 48 30 79 28 151 84 235 183 19 22 42 31
123 49 145 31 165 44 165 108 0 26 4 28 74 45 69 16 116 43 116 67 0 7 -10 9
-27 4 -15 -3 -52 -11 -83 -17 -30 -5 -69 -18 -86 -29 -46 -28 -65 -23 -23 5
21 15 59 28 90 32 70 9 100 20 117 45 7 10 17 17 21 14 10 -6 31 39 31 66 0
11 -18 54 -39 97 -38 76 -39 79 -23 105 14 23 15 29 3 36 -15 10 -15 12 19
133 l22 77 -31 44 c-17 25 -36 47 -43 50 -7 2 6 7 29 11 44 8 53 21 53 81 0
43 -27 140 -56 205 l-25 55 -14 -32 c-16 -38 -29 -45 -15 -8 13 33 6 299 -9
354 -16 55 -25 48 -12 -10 17 -72 14 -282 -5 -328 -19 -47 -34 -54 -179 -75
-194 -29 -195 -29 -201 -11 -4 9 -5 18 -3 20 3 2 45 9 94 15 50 6 115 18 146
27 48 13 60 21 77 51 37 68 52 192 42 349 -2 30 -3 31 -24 19 -30 -20 -406
-68 -406 -53 0 3 8 13 17 22 15 16 11 17 -63 10 -43 -5 -180 -11 -304 -15
-124 -4 -202 -7 -174 -8 30 -1 56 -8 63 -16 19 -22 -82 -28 -442 -25 l-328 3
-12 25 c-7 13 -19 27 -27 29 -12 4 -13 2 -2 -9 26 -28 12 -36 -69 -42 -44 -3
-83 -8 -86 -11 -3 -3 4 -20 16 -39 25 -41 26 -47 5 -47 -11 0 -14 -6 -9 -20 5
-16 2 -20 -19 -20 -45 0 -75 21 -97 70 -17 37 -27 48 -45 48 -29 0 -29 -5 -4
-43 25 -38 26 -53 1 -31 -19 17 -19 17 -14 -3 4 -18 1 -21 -24 -21 -39 0 -69
23 -83 64 -9 28 -17 35 -46 41 -20 3 -39 4 -42 1 -3 -4 2 -22 11 -41 9 -20 17
-38 17 -40 0 -3 -16 -5 -35 -5 -37 0 -78 32 -90 70 -6 18 -34 35 -42 26 -3 -2
0 -13 6 -24 22 -41 14 -52 -34 -52 -45 0 -105 22 -105 39 0 22 -51 61 -80 61
-35 0 -35 -1 -14 -41 8 -17 14 -32 12 -34 -11 -10 -168 24 -200 43 -21 13 -49
22 -63 20 l-25 -3 24 -27 c17 -20 33 -28 57 -28 19 0 113 -11 209 -24 224 -31
666 -81 840 -96 208 -16 222 -19 236 -38 7 -9 14 -21 14 -26 0 -6 -6 -2 -13 8
-10 14 -31 19 -98 22 -193 9 -711 68 -979 111 -91 14 -186 27 -212 27 -38 1
-49 6 -63 27 -33 48 -80 69 -232 105 -176 42 -203 54 -227 99 -11 19 -26 41
-35 49 -13 11 -268 57 -321 58 -8 0 -55 6 -105 14 -49 7 -155 21 -235 29 -80
9 -156 18 -170 20 -14 2 -30 4 -36 4 -6 1 1 35 18 84 15 45 28 89 28 98 0 12
11 18 35 21 34 4 48 -5 23 -15 -7 -3 1 -6 17 -7 26 -1 27 -3 10 -9 -12 -5 6
-7 47 -6 36 2 71 6 76 9 5 3 12 21 14 40 2 19 1 33 -2 31 -4 -2 -24 1 -46 8
l-39 12 30 6 c26 5 23 7 -25 14 -40 6 -49 10 -35 15 18 7 17 8 -7 15 -17 4
-28 14 -28 25 0 10 -6 22 -12 28 -10 8 -13 3 -13 -20 0 -22 6 -33 19 -38 16
-5 17 -8 6 -15 -21 -13 -164 145 -285 315 -124 176 -258 343 -373 465 l-84 90
28 7 c42 11 -667 0 -821 -12 -155 -12 -346 -13 -395 -1 l-35 8 45 21 c129 58
397 87 817 87 172 0 309 3 305 6 -4 4 -34 17 -67 30 -57 22 -73 23 -315 25
-140 0 -277 0 -305 -2z m835 -295 c54 -59 107 -122 120 -140 18 -27 14 -24
-19 11 -101 109 -135 140 -149 135 -13 -5 -13 -3 -1 12 12 15 12 16 -5 10 -14
-6 -28 1 -50 22 l-31 29 -240 6 c-132 3 -241 6 -242 6 -2 0 -3 5 -3 10 0 7 89
9 262 8 l262 -3 96 -106z m-653 95 c-7 -7 -179 -5 -186 2 -2 2 40 4 94 4 54 0
95 -3 92 -6z m-234 -11 c-7 -2 -19 -2 -25 0 -7 3 -2 5 12 5 14 0 19 -2 13 -5z
m294 -65 c-3 -7 -5 -2 -5 12 0 14 2 19 5 13 2 -7 2 -19 0 -25z m-20 -95 c-3
-10 -5 -4 -5 12 0 17 2 24 5 18 2 -7 2 -21 0 -30z m-1401 -236 c5 -12 21 -28
36 -36 14 -9 70 -52 123 -96 110 -92 188 -144 228 -152 15 -3 30 -9 33 -14 8
-14 -99 21 -143 47 -85 49 -323 259 -323 285 0 15 35 -11 46 -34z m-45 -4 c13
-16 12 -17 -3 -4 -17 13 -22 21 -14 21 2 0 10 -8 17 -17z m80 -80 c13 -16 12
-17 -3 -4 -10 7 -18 15 -18 17 0 8 8 3 21 -13z m1316 -5 c-3 -8 -6 -5 -6 6 -1
11 2 17 5 13 3 -3 4 -12 1 -19z m-1141 -146 c16 -13 22 -20 14 -16 -23 11
-133 99 -155 125 -11 12 10 -2 46 -32 36 -30 79 -64 95 -77z m2174 75 c0 -3
18 -32 40 -65 42 -62 50 -83 25 -62 -10 9 -15 9 -15 1 0 -10 14 -15 33 -12 14
2 45 -61 39 -82 -5 -20 -5 -20 -14 2 -4 13 -6 26 -3 31 7 11 -13 25 -58 41
-40 14 -70 39 -48 39 7 0 9 5 6 11 -4 6 2 13 13 16 19 5 19 6 4 24 -23 26 -35
24 -30 -6 5 -23 -7 -44 -18 -32 -3 2 -7 38 -11 78 l-5 74 21 -27 c12 -14 21
-28 21 -31z m-149 -33 c34 -20 87 -99 75 -112 -4 -3 -9 4 -13 16 -3 12 -9 22
-13 22 -5 0 -11 8 -14 18 -6 17 -21 18 -199 18 -208 -1 -212 -2 -271 -61 l-26
-26 0 30 c0 36 43 76 98 91 126 33 308 36 363 4z m-1573 -131 c-10 -2 -28 -2
-40 0 -13 2 -5 4 17 4 22 1 32 -1 23 -4z m399 -33 c545 -52 683 -67 691 -75 4
-4 -11 -5 -33 -1 -22 3 -182 19 -355 36 -462 45 -679 67 -648 69 15 0 170 -13
345 -29z m862 11 c68 -6 126 -13 129 -16 14 -14 -16 -16 -120 -6 -158 16 -198
22 -198 32 0 4 15 6 33 4 17 -2 88 -9 156 -14z m-1271 -8 c-10 -2 -26 -2 -35
0 -10 3 -2 5 17 5 19 0 27 -2 18 -5z m115 -10 c-13 -2 -33 -2 -45 0 -13 2 -3
4 22 4 25 0 35 -2 23 -4z m85 -10 c-10 -2 -28 -2 -40 0 -13 2 -5 4 17 4 22 1
32 -1 23 -4z m1590 -30 c42 -32 41 -42 -7 -40 -22 1 -37 -1 -35 -5 2 -4 -5 -6
-16 -5 -12 1 -19 6 -15 14 3 10 0 11 -14 4 -16 -9 -17 -7 -13 14 5 26 26 34
36 13 3 -7 4 -4 3 7 -2 11 -9 19 -16 17 -7 -1 -10 2 -6 8 9 14 42 3 83 -27z
m-1475 20 c-7 -2 -21 -2 -30 0 -10 3 -4 5 12 5 17 0 24 -2 18 -5z m1587 -58
c0 -5 -9 4 -20 20 -11 17 -20 35 -20 40 0 6 9 -3 20 -20 11 -16 20 -34 20 -40z
m-1492 48 c-10 -2 -26 -2 -35 0 -10 3 -2 5 17 5 19 0 27 -2 18 -5z m-1431 -35
c-3 -7 -5 -2 -5 12 0 14 2 19 5 13 2 -7 2 -19 0 -25z m1490 26 c-3 -3 -12 -4
-19 -1 -8 3 -5 6 6 6 11 1 17 -2 13 -5z m226 -21 c-7 -2 -21 -2 -30 0 -10 3
-4 5 12 5 17 0 24 -2 18 -5z m-848 -33 l50 -21 -85 5 c-89 5 -160 22 -160 39
0 16 141 0 195 -23z m928 23 c-7 -2 -19 -2 -25 0 -7 3 -2 5 12 5 14 0 19 -2
13 -5z m210 -20 c-7 -2 -21 -2 -30 0 -10 3 -4 5 12 5 17 0 24 -2 18 -5z m80
-10 c-7 -2 -19 -2 -25 0 -7 3 -2 5 12 5 14 0 19 -2 13 -5z m154 -49 c22 -10
39 -12 50 -6 10 6 38 8 63 6 25 -1 99 -4 165 -5 66 0 123 -3 127 -5 4 -3 4
-12 1 -20 -5 -13 -7 -13 -14 -2 -6 9 -8 7 -7 -8 3 -28 27 -26 34 3 6 21 24 33
24 16 0 -14 -37 -65 -46 -64 -5 1 -10 -20 -12 -47 l-3 -48 -72 7 c-305 31
-505 69 -755 145 -85 26 -97 38 -41 42 18 1 35 4 37 7 2 2 97 1 210 -2 150 -3
216 -9 239 -19z m689 5 c19 -22 19 -22 -3 -8 -13 8 -23 17 -23 21 0 12 6 9 26
-13z m-2436 -54 c0 -8 -6 -15 -14 -15 -20 0 -29 17 -14 23 22 9 28 7 28 -8z
m154 -11 c10 -4 16 -18 16 -35 0 -35 -23 -38 -60 -9 -14 11 -35 20 -47 20 -12
0 -30 3 -40 8 -13 5 -4 9 32 13 79 9 82 9 99 3z m-71 -61 c-7 -2 -21 -2 -30 0
-10 3 -4 5 12 5 17 0 24 -2 18 -5z m1050 -45 c2 -9 30 -13 91 -13 73 0 90 -3
101 -18 13 -18 10 -57 -5 -57 -4 0 -32 11 -61 24 -30 14 -76 27 -104 31 -94
11 -115 16 -115 25 0 18 87 25 93 8z m1657 -208 c-60 -15 -73 -15 -77 -4 -2 7
17 11 54 11 52 1 54 0 23 -7z m233 -7 c-16 -6 -17 -33 -3 -33 6 0 27 7 47 15
20 8 38 13 41 10 3 -3 0 -5 -6 -5 -7 0 -12 -4 -12 -10 0 -5 9 -10 20 -10 11 0
20 -5 20 -11 0 -7 16 -8 46 -3 37 5 47 3 59 -12 8 -11 13 -23 11 -29 -2 -6 21
-10 55 -10 46 0 56 -2 44 -11 -23 -17 -134 -25 -211 -16 -92 12 -139 9 -139
-9 0 -8 -12 -15 -27 -17 -17 -2 -28 2 -28 8 0 7 -7 9 -16 6 -24 -9 -94 26
-144 73 -37 34 -42 43 -30 51 8 5 20 9 25 9 6 0 4 -3 -2 -6 -20 -7 -15 -23 6
-23 10 0 24 -7 31 -15 7 -8 16 -15 21 -15 5 0 6 7 3 15 -5 12 2 15 29 15 41 0
59 17 25 24 -13 3 -32 7 -43 9 -11 3 27 5 85 5 58 0 99 -2 93 -5z m302 -63 c3
-5 1 -10 -4 -10 -6 0 -11 5 -11 10 0 6 2 10 4 10 3 0 8 -4 11 -10z m-2802 -57
c-7 -2 -21 -2 -30 0 -10 3 -4 5 12 5 17 0 24 -2 18 -5z m175 0 c-15 -2 -42 -2
-60 0 -18 2 -6 4 27 4 33 0 48 -2 33 -4z m205 -10 c-7 -2 -19 -2 -25 0 -7 3
-2 5 12 5 14 0 19 -2 13 -5z m340 -30 c-7 -2 -21 -2 -30 0 -10 3 -4 5 12 5 17
0 24 -2 18 -5z m1790 0 c-7 -2 -19 -2 -25 0 -7 3 -2 5 12 5 14 0 19 -2 13 -5z
m3562 -23 c-3 -5 -13 -10 -21 -10 -8 0 -14 5 -14 10 0 6 9 10 21 10 11 0 17
-4 14 -10z m-1552 -86 c29 -39 42 -64 33 -64 -7 0 -20 10 -29 23 -8 12 -30 40
-50 62 -34 38 -40 60 -14 49 7 -3 33 -34 60 -70z m1402 66 c3 -5 -3 -10 -14
-10 -12 0 -21 5 -21 10 0 6 6 10 14 10 8 0 18 -4 21 -10z m-1985 -30 c18 -43
7 -47 -13 -5 -9 19 -13 35 -8 35 5 0 14 -14 21 -30z m2070 -10 c0 -5 -7 -10
-16 -10 -8 0 -12 5 -9 10 3 6 10 10 16 10 5 0 9 -4 9 -10z m-797 -7 c-7 -2
-21 -2 -30 0 -10 3 -4 5 12 5 17 0 24 -2 18 -5z m604 -19 c-3 -3 -12 -4 -19
-1 -8 3 -5 6 6 6 11 1 17 -2 13 -5z m288 -14 c-3 -5 -18 -10 -33 -10 -21 0
-24 2 -12 10 20 13 53 13 45 0z m-2704 -71 c22 -33 55 -76 72 -97 32 -37 9
-25 -26 13 -17 19 -84 114 -102 144 -23 39 20 -7 56 -60z m1942 54 c-7 -2 -19
-2 -25 0 -7 3 -2 5 12 5 14 0 19 -2 13 -5z m-578 -13 c-27 -12 -35 -12 -35 0
0 6 12 10 28 9 24 0 25 -1 7 -9z m313 3 c-10 -2 -26 -2 -35 0 -10 3 -2 5 17 5
19 0 27 -2 18 -5z m859 -4 c-14 -8 -22 -8 -30 0 -8 8 -3 11 19 11 25 -1 27 -2
11 -11z m-212 -19 c-27 -12 -35 -12 -35 0 0 6 12 10 28 9 24 0 25 -1 7 -9z
m-232 -17 c-7 -2 -21 -2 -30 0 -10 3 -4 5 12 5 17 0 24 -2 18 -5z m344 -16 c4
-7 0 -8 -11 -4 -10 4 -24 7 -32 7 -9 0 -13 4 -10 9 7 11 44 3 53 -12z m-882 3
c4 -6 -9 -10 -32 -9 -30 0 -34 2 -18 9 27 12 43 12 50 0z m283 3 c-10 -2 -26
-2 -35 0 -10 3 -2 5 17 5 19 0 27 -2 18 -5z m-1767 -20 c13 -16 12 -17 -3 -4
-10 7 -18 15 -18 17 0 8 8 3 21 -13z m1906 -19 c-3 -3 -20 0 -38 5 l-34 11 33
-3 c18 -2 32 1 33 7 0 6 3 5 6 -2 3 -7 3 -15 0 -18z m-1867 -18 c-14 -14 -32
3 -17 18 9 10 14 11 19 2 4 -6 3 -15 -2 -20z m-1759 -2 l24 -27 -27 18 c-16 9
-28 21 -28 26 0 14 5 11 31 -17z m3349 17 c0 -6 -17 -7 -37 -4 -52 8 -54 13
-5 13 23 0 42 -4 42 -9z m-1518 -57 c7 -5 16 -11 21 -12 4 -1 23 -9 43 -17 20
-8 41 -15 47 -15 6 0 39 -5 74 -11 69 -12 78 -33 10 -23 -113 16 -245 64 -232
84 3 5 1 11 -5 15 -5 3 -10 11 -10 17 0 7 9 3 20 -8 10 -10 25 -24 32 -30z
m112 -4 c12 0 28 -5 36 -11 11 -7 6 -8 -20 -4 -42 8 -130 47 -130 57 0 4 21
-4 46 -17 26 -14 56 -25 68 -25z m203 4 c-3 -3 -12 -4 -19 -1 -8 3 -5 6 6 6
11 1 17 -2 13 -5z m120 -10 c-3 -3 -12 -4 -19 -1 -8 3 -5 6 6 6 11 1 17 -2 13
-5z m-198 -20 c2 -2 -7 -4 -22 -4 -14 0 -29 5 -32 10 -6 10 42 4 54 -6z m1848
-10 c2 -7 -11 -14 -29 -16 -18 -3 -79 -13 -135 -23 -96 -17 -103 -20 -103 -41
0 -43 -27 -48 -297 -48 -243 -1 -252 0 -275 20 -12 12 -30 24 -38 26 -8 3 94
7 228 10 l243 5 47 34 c41 30 57 35 127 40 121 9 228 6 232 -7z m-2072 -24 c3
-5 -4 -6 -15 -3 -11 3 -22 9 -25 13 -3 5 4 6 15 3 11 -3 22 -9 25 -13z m423
13 c-10 -2 -26 -2 -35 0 -10 3 -2 5 17 5 19 0 27 -2 18 -5z m-115 -30 c-13 -2
-33 -2 -45 0 -13 2 -3 4 22 4 25 0 35 -2 23 -4z m117 -13 c11 -7 7 -10 -18
-10 -20 0 -31 4 -27 10 8 13 26 13 45 0z m-240 -10 c0 -13 -11 -13 -30 0 -12
8 -11 10 8 10 12 0 22 -4 22 -10z m90 -10 c12 -8 11 -10 -7 -10 -13 0 -23 5
-23 10 0 13 11 13 30 0z m300 1 c0 -4 -11 -6 -25 -3 -14 2 -25 6 -25 8 0 2 11
4 25 4 14 0 25 -4 25 -9z m-200 -15 c0 -11 -19 -15 -25 -6 -3 5 1 10 9 10 9 0
16 -2 16 -4z m-4777 -17 c79 -22 153 -119 191 -250 19 -66 36 -232 27 -266 -6
-23 -7 -23 -46 17 -39 40 -85 54 -85 26 0 -8 -9 -18 -21 -21 -16 -5 -18 -10
-8 -21 6 -8 18 -14 26 -14 8 0 12 -4 9 -9 -11 -18 31 -96 58 -109 34 -15 46
-8 46 26 0 15 5 34 10 42 13 21 12 3 -4 -77 -24 -114 -34 -126 -64 -73 -9 16
-25 30 -35 30 -21 0 -21 0 12 -53 20 -32 26 -36 39 -25 12 10 11 5 -3 -17 -28
-45 -57 -75 -87 -91 -31 -16 -108 -19 -108 -4 0 6 -8 10 -19 10 -49 0 -147
146 -159 235 -2 22 -9 45 -14 52 -5 6 -12 72 -15 145 -6 152 8 230 56 326 33
65 61 94 111 116 43 19 37 18 83 5z m6987 -98 c-6 -22 -17 -47 -26 -56 -20
-19 -48 -20 -41 0 4 8 1 17 -5 21 -11 7 39 40 54 36 3 -1 10 13 14 31 4 17 9
27 11 20 2 -6 -1 -30 -7 -52z m-2080 20 c0 -5 -14 -12 -30 -16 -19 -4 -28 -11
-23 -18 5 -9 3 -9 -8 -1 -8 6 -25 11 -39 12 -14 0 -50 5 -80 11 -30 6 -64 12
-75 14 -11 2 42 4 118 5 75 1 137 -3 137 -7z m95 -21 c3 -6 -1 -7 -9 -4 -18 7
-21 14 -7 14 6 0 13 -4 16 -10z m-80 -10 c-3 -5 -13 -10 -21 -10 -8 0 -12 5
-9 10 3 6 13 10 21 10 8 0 12 -4 9 -10z m32 -16 c-3 -3 -12 -4 -19 -1 -8 3 -5
6 6 6 11 1 17 -2 13 -5z m-4192 -134 c66 -11 174 -33 238 -50 65 -16 130 -30
143 -30 14 0 23 -4 20 -8 -3 -5 -112 11 -243 35 -131 24 -273 49 -315 56 -43
6 -78 15 -78 20 0 10 65 3 235 -23z m6059 3 c-1 -7 -2 -66 -2 -132 l-2 -118
-67 -2 c-36 -1 -69 -3 -72 -5 -3 -2 -40 -7 -81 -10 -174 -15 -584 -57 -591
-62 -4 -2 -14 -1 -23 2 -13 5 -16 26 -16 135 0 112 2 129 18 137 9 5 60 12
112 16 100 7 376 31 520 45 118 12 205 9 204 -6z m-3374 -129 c28 -15 50 -31
50 -36 0 -4 -25 -45 -55 -91 -51 -77 -55 -86 -57 -149 -1 -37 -8 -74 -14 -82
-9 -13 -14 7 -23 91 -7 59 -14 109 -16 111 -9 9 -15 -79 -9 -139 11 -118 -21
-75 -41 56 -6 36 -62 151 -99 200 -14 19 -15 18 -54 -25 -42 -47 -67 -52 -31
-6 25 31 100 85 137 97 50 16 158 2 212 -27z m-2111 11 c47 -8 87 -18 90 -21
7 -7 -54 2 -149 21 -91 18 -43 18 59 0z m186 -35 c13 -6 5 -7 -25 -3 -25 3
-47 7 -49 9 -9 8 55 2 74 -6z m76 -18 c-13 -2 -27 0 -32 5 -6 6 3 7 23 4 28
-4 29 -6 9 -9z m62 -9 c-7 -2 -19 -2 -25 0 -7 3 -2 5 12 5 14 0 19 -2 13 -5z
m2947 2 c0 -3 -10 -10 -22 -15 l-23 -9 23 0 c46 -2 42 -77 -5 -83 -35 -4 -43
-28 -10 -28 17 0 28 -7 32 -20 9 -29 -12 -60 -41 -60 -25 0 -30 -24 -6 -26 7
-1 17 -2 22 -3 14 -2 13 -54 -2 -69 -7 -7 -21 -12 -31 -12 -15 0 -18 -5 -14
-25 4 -23 3 -24 -12 -11 -9 7 -30 17 -48 21 -29 6 -31 9 -28 38 3 18 7 71 11
119 3 49 10 90 15 94 5 3 9 22 9 43 0 21 3 41 7 44 8 8 123 9 123 2z m-2893
-11 c-3 -3 -12 -4 -19 -1 -8 3 -5 6 6 6 11 1 17 -2 13 -5z m1847 -36 c25 -29
33 -45 26 -52 -8 -8 -19 0 -38 23 -58 73 -47 98 12 29z m-1737 16 c-3 -3 -12
-4 -19 -1 -8 3 -5 6 6 6 11 1 17 -2 13 -5z m56 -11 c-7 -2 -19 -2 -25 0 -7 3
-2 5 12 5 14 0 19 -2 13 -5z m1197 -32 c0 -5 8 -12 18 -15 12 -4 27 -34 45
-91 26 -78 32 -87 79 -121 36 -27 61 -38 85 -37 27 1 34 -3 39 -23 5 -19 -1
-31 -25 -55 -17 -16 -36 -27 -42 -24 -5 4 -24 -3 -42 -14 -32 -20 -33 -20 -76
0 -24 10 -48 19 -53 19 -5 0 -37 -16 -70 -35 -33 -20 -62 -34 -64 -32 -7 7 -6
161 1 203 15 89 74 234 95 234 6 0 10 -4 10 -9z m-910 -11 c12 -8 11 -10 -7
-10 -13 0 -23 5 -23 10 0 13 11 13 30 0z m-2040 -20 c0 -5 -2 -10 -4 -10 -3 0
-8 5 -11 10 -3 6 -1 10 4 10 6 0 11 -4 11 -10z m6880 -69 c23 -77 26 -117 4
-56 -7 22 -21 53 -30 68 -14 25 -14 57 0 57 3 0 14 -31 26 -69z m-3365 -2 c14
-27 35 -85 46 -127 22 -84 37 -296 23 -305 -5 -3 -27 11 -49 30 -87 77 -97 83
-140 73 -22 -5 -41 -14 -43 -20 -2 -5 -8 -8 -13 -4 -5 3 -9 0 -9 -5 0 -6 -7
-11 -15 -11 -22 0 -18 21 5 27 22 6 26 18 10 28 -25 16 -4 33 66 55 l77 24 16
-23 c35 -50 80 -96 87 -88 22 22 -54 332 -81 328 -15 -3 -36 -68 -44 -135 l-6
-58 -60 -23 c-80 -29 -123 -37 -131 -23 -5 7 -2 9 7 4 8 -4 6 -1 -3 7 -19 15
-26 73 -8 62 6 -4 8 -10 6 -14 -6 -10 31 -51 45 -51 6 0 7 5 4 10 -3 6 -1 10
5 10 7 0 10 6 7 13 -2 6 -14 11 -25 9 -28 -4 -29 18 -2 25 23 6 26 19 8 26
-10 3 -10 7 -1 17 9 10 16 7 35 -14 l23 -28 26 20 c15 13 39 57 63 116 21 53
40 96 42 96 2 0 15 -23 29 -51z m1002 4 c-3 -10 -5 -4 -5 12 0 17 2 24 5 18 2
-7 2 -21 0 -30z m1968 7 c-16 -4 -41 -8 -55 -9 -20 0 -22 1 -10 9 8 5 33 9 55
9 39 -1 39 -2 10 -9z m-3825 -50 c0 -5 -5 -10 -11 -10 -5 0 -7 5 -4 10 3 6 8
10 11 10 2 0 4 -4 4 -10z m-1862 -35 c103 -14 228 -32 277 -40 50 -8 151 -24
225 -35 74 -11 194 -29 265 -41 72 -11 147 -23 168 -26 55 -8 54 -21 -1 -15
-137 13 -876 -40 -1182 -84 -58 -9 -118 -17 -133 -19 -16 -2 -35 -9 -43 -16
-18 -14 -14 -2 28 83 15 31 30 69 34 83 7 28 23 42 33 28 3 -5 27 -7 53 -5
l47 4 7 54 c4 38 11 54 21 54 8 0 99 -11 201 -25z m3703 -37 c-8 -28 -9 -30
-10 -8 -1 34 12 80 17 58 2 -9 -1 -31 -7 -50z m1259 51 c0 -5 -10 -9 -22 -9
-13 0 -68 -5 -123 -11 -55 -6 -124 -10 -154 -9 -46 0 -59 -3 -83 -27 -15 -15
-28 -22 -28 -15 0 6 16 24 35 39 31 25 45 29 132 34 149 8 243 7 243 -2z
m-319 -96 c-12 -20 -14 -14 -5 12 4 9 9 14 11 11 3 -2 0 -13 -6 -23z m-111 -6
c0 -2 -10 -12 -22 -23 l-23 -19 19 23 c18 21 26 27 26 19z m-1802 -37 c-24
-13 -68 -20 -68 -12 0 14 7 17 45 18 20 0 30 -3 23 -6z m1733 -61 c-25 -24
-27 -13 -4 21 11 15 18 19 21 11 2 -7 -5 -21 -17 -32z m-2031 -9 c12 -8 9 -10
-13 -10 -16 0 -26 4 -22 10 8 12 16 12 35 0z m80 -4 c0 -2 -7 -7 -16 -10 -8
-3 -12 -2 -9 4 6 10 25 14 25 6z m-151 -61 c-9 -9 -19 -11 -29 -5 -12 7 -10
11 10 18 31 12 39 6 19 -13z m3331 16 c0 -10 -74 -25 -260 -51 -88 -12 -161
-28 -185 -40 -42 -21 -183 -41 -275 -39 -34 1 -1 7 85 15 119 12 218 36 204
48 -2 2 -60 -2 -129 -10 -124 -13 -217 -18 -209 -10 2 2 108 14 234 26 127 13
291 33 365 45 158 27 170 28 170 16z m-13 -37 c-3 -3 -12 -4 -19 -1 -8 3 -5 6
6 6 11 1 17 -2 13 -5z m66 -1 c-7 -2 -19 -2 -25 0 -7 3 -2 5 12 5 14 0 19 -2
13 -5z m-3387 -28 c28 -26 28 -26 6 -32 -12 -3 -22 -8 -22 -12 0 -3 -23 -41
-50 -85 -48 -74 -52 -77 -69 -62 -11 10 -35 16 -64 16 -53 0 -63 -15 -17 -25
17 -4 30 -10 30 -13 0 -4 12 -20 26 -35 23 -25 25 -32 15 -53 -15 -34 -14 -37
11 -31 13 4 31 -1 46 -14 38 -29 42 -24 24 34 -25 86 -21 114 29 197 24 40 50
75 57 78 20 6 6 -61 -29 -137 -31 -67 -32 -115 -3 -173 8 -15 14 -36 14 -48 0
-23 17 -25 44 -5 11 8 25 15 30 15 6 0 5 -4 -3 -9 -8 -5 -15 -19 -16 -31 -1
-18 3 -20 29 -17 35 4 51 36 19 38 -15 1 -15 2 -2 6 34 9 37 97 8 195 -19 62
-20 77 -10 120 6 28 9 54 6 58 -3 5 -1 11 5 15 5 3 10 1 10 -4 0 -6 4 -11 10
-11 5 0 7 8 3 18 -6 16 -5 16 14 0 11 -10 24 -18 31 -18 6 0 25 -31 43 -70 30
-67 34 -70 86 -90 29 -11 58 -20 63 -20 5 0 14 19 20 43 6 23 15 51 20 62 8
18 9 18 9 2 1 -31 -21 -107 -31 -107 -5 0 -8 -10 -7 -22 6 -55 -90 -189 -168
-235 -55 -32 -159 -42 -201 -19 -15 8 -40 18 -56 21 -81 17 -239 246 -231 334
3 29 0 39 -9 35 -9 -3 -16 11 -23 45 -10 53 -9 61 13 61 10 0 12 -10 9 -32 -4
-26 -3 -29 4 -13 5 11 10 15 10 10 1 -11 10 -16 81 -52 25 -13 37 -23 28 -23
-10 0 -18 -4 -18 -10 0 -5 12 -10 28 -9 20 0 36 12 65 50 20 27 44 49 53 49
12 0 13 4 4 20 -14 27 -7 25 26 -5z m2173 -33 c16 -12 191 -10 314 4 26 3 47
2 47 -3 0 -5 -80 -15 -177 -22 l-177 -13 -18 21 c-9 12 -23 21 -30 20 -7 -1
-22 -1 -33 0 -14 2 -10 6 15 14 23 8 36 9 39 2 2 -5 11 -16 20 -23z m-1929 -2
c0 -5 -2 -10 -4 -10 -3 0 -8 5 -11 10 -3 6 -1 10 4 10 6 0 11 -4 11 -10z
m-145 -19 c-8 -13 -45 -15 -45 -2 0 5 10 11 23 13 27 5 31 3 22 -11z m2341
-233 c24 -17 44 -34 44 -36 0 -6 -458 8 -555 17 -65 6 -54 8 150 27 311 30
308 30 361 -8z"/>
<path d="M4085 4700 c-3 -5 -1 -10 4 -10 6 0 11 5 11 10 0 6 -2 10 -4 10 -3 0
-8 -4 -11 -10z"/>
<path d="M4555 4090 c-3 -5 -1 -10 4 -10 6 0 11 5 11 10 0 6 -2 10 -4 10 -3 0
-8 -4 -11 -10z"/>
<path d="M4317 3689 c7 -7 15 -10 18 -7 3 3 -2 9 -12 12 -14 6 -15 5 -6 -5z"/>
<path d="M1908 2833 c-19 -5 -25 -23 -8 -23 5 0 19 -18 30 -40 11 -22 23 -40
25 -40 3 0 5 25 5 55 0 58 -4 61 -52 48z"/>
<path d="M1970 2775 c0 -50 2 -55 18 -46 9 5 25 23 35 39 17 30 17 31 -5 46
-39 28 -48 21 -48 -39z"/>
<path d="M1840 2781 c-5 -11 -17 -27 -27 -36 -16 -16 -15 -18 4 -34 12 -9 26
-39 33 -71 15 -67 69 -134 82 -101 12 33 -9 135 -41 199 -17 34 -33 62 -36 62
-2 0 -9 -9 -15 -19z"/>
<path d="M2052 2767 c-30 -38 -52 -100 -52 -151 0 -63 -7 -86 -23 -80 -16 5
-43 -13 -34 -23 5 -4 12 -1 17 7 8 12 10 12 15 -1 6 -16 28 -21 55 -13 13 4
13 6 0 14 -12 7 -12 12 -2 22 9 9 15 8 27 -8 13 -16 16 -17 25 -4 5 8 15 40
21 70 7 30 16 60 21 66 12 17 -57 117 -70 101z"/>
<path d="M1762 2635 c-16 -60 -15 -65 7 -65 11 0 21 -6 24 -12 2 -7 8 -10 12
-6 9 8 -14 128 -24 128 -4 0 -12 -20 -19 -45z"/>
<path d="M2132 2610 c-7 -18 -12 -53 -12 -77 0 -38 -4 -45 -32 -62 -18 -11
-43 -29 -54 -41 -19 -19 -25 -20 -45 -10 -19 11 -21 14 -7 24 8 6 13 17 10 24
-3 10 -7 10 -19 0 -14 -11 -15 -10 -8 11 5 17 4 21 -4 16 -7 -4 -11 -14 -10
-23 3 -32 -1 -44 -13 -39 -7 2 -21 -2 -31 -11 -15 -13 -23 -13 -57 -2 -37 12
-41 11 -74 -14 -32 -24 -34 -29 -24 -51 6 -13 14 -22 18 -20 5 3 24 -2 44 -10
24 -10 36 -22 36 -35 0 -27 14 -25 34 5 9 13 30 32 46 40 29 15 30 15 27 -7
-2 -18 3 -23 24 -23 18 -1 25 3 22 12 -3 7 1 19 9 27 42 47 49 62 23 52 -29
-11 6 29 45 52 47 26 60 22 88 -26 l22 -37 -2 55 c-3 54 -6 58 -40 45 -10 -4
-18 -3 -18 3 0 6 10 12 23 14 18 2 21 8 19 36 -2 18 -9 49 -16 70 l-13 36 -11
-34z m-137 -210 c3 -5 2 -10 -4 -10 -5 0 -13 5 -16 10 -3 6 -2 10 4 10 5 0 13
-4 16 -10z m-55 -17 c0 -5 -5 -15 -10 -23 -8 -12 -10 -11 -10 8 0 12 5 22 10
22 6 0 10 -3 10 -7z"/>
<path d="M1962 2600 c0 -19 2 -27 5 -17 2 9 2 25 0 35 -3 9 -5 1 -5 -18z"/>
<path d="M1746 2553 c-3 -4 -6 -33 -6 -65 0 -56 1 -58 20 -46 11 7 20 18 20
24 0 6 7 17 15 24 8 7 15 16 15 19 0 12 -57 50 -64 44z"/>
<path d="M2015 2471 c-3 -5 -1 -12 5 -16 5 -3 10 1 10 9 0 18 -6 21 -15 7z"/>
<path d="M1899 2248 c-17 -35 -32 -64 -33 -65 -1 -2 -17 3 -34 9 -25 10 -34
10 -44 0 -9 -9 -9 -12 3 -12 9 0 26 -11 39 -25 17 -18 21 -31 17 -53 -5 -26
-3 -29 23 -29 l28 0 -14 45 c-13 44 -12 48 21 119 41 89 37 97 -6 11z"/>
<path d="M1983 2276 c4 -10 1 -13 -7 -10 -19 7 -68 -102 -62 -135 3 -15 7 -50
8 -79 1 -39 5 -51 15 -47 7 3 20 8 28 11 9 4 17 -1 21 -10 11 -29 22 -17 23
27 0 23 2 53 5 66 3 12 -1 51 -9 85 -8 34 -12 71 -9 84 4 14 2 22 -6 22 -7 0
-10 -7 -7 -14z"/>
<path d="M2042 2098 c-6 -18 -12 -52 -15 -75 -4 -36 -2 -43 12 -43 16 0 61 34
61 47 0 15 -36 103 -42 103 -3 0 -11 -15 -16 -32z m43 -78 c-3 -5 -16 -15 -28
-21 -21 -10 -21 -9 2 10 25 23 36 27 26 11z"/>
<path d="M6808 2763 c7 -3 16 -2 19 1 4 3 -2 6 -13 5 -11 0 -14 -3 -6 -6z"/>
<path d="M8297 2473 c-12 -11 -8 -40 8 -53 18 -15 20 1 3 18 -8 8 -8 15 2 27
12 14 0 22 -13 8z"/>
<path d="M8420 2450 c0 -5 5 -10 10 -10 6 0 10 5 10 10 0 6 -4 10 -10 10 -5 0
-10 -4 -10 -10z"/>
<path d="M8460 2445 c-15 -19 -9 -49 12 -53 19 -4 32 27 22 52 -8 20 -18 20
-34 1z m27 -29 c-4 -9 -11 -16 -17 -16 -11 0 -14 33 -3 44 11 10 26 -11 20
-28z"/>
<path d="M8347 2443 c-14 -13 -6 -33 13 -33 11 0 20 4 20 10 0 5 -7 7 -15 4
-8 -4 -15 -2 -15 4 0 6 6 13 13 15 6 3 7 6 1 6 -6 1 -14 -2 -17 -6z"/>
<path d="M8520 2424 c12 -13 11 -17 -1 -26 -12 -8 -12 -9 1 -5 21 5 24 33 4
41 -14 6 -15 4 -4 -10z"/>
<path d="M8300 2390 c-13 -8 -12 -10 3 -10 9 0 17 5 17 10 0 12 -1 12 -20 0z"/>
<path d="M8347 2389 c7 -7 15 -10 18 -7 3 3 -2 9 -12 12 -14 6 -15 5 -6 -5z"/>
<path d="M5210 2469 l-25 -10 25 -14 c14 -7 36 -32 50 -54 14 -23 28 -41 32
-41 3 0 14 -7 22 -16 10 -10 16 -11 16 -4 0 7 8 10 20 7 15 -4 29 6 55 36 19
22 35 46 35 53 0 6 -22 21 -49 33 -53 23 -138 27 -181 10z m130 -105 c0 -8 -4
-12 -10 -9 -5 3 -10 10 -10 16 0 5 5 9 10 9 6 0 10 -7 10 -16z"/>
<path d="M5016 2272 c-27 -51 -56 -179 -56 -245 0 -59 0 -59 23 -44 12 8 23
20 23 26 3 24 5 25 14 11 11 -16 18 -11 46 36 9 16 16 14 85 -24 50 -28 82
-39 97 -35 12 3 19 9 17 14 -3 4 -11 6 -19 3 -15 -6 -238 100 -256 121 -20 24
26 19 53 -6 l22 -20 3 38 c2 21 -6 65 -16 98 l-18 60 -18 -33z"/>
<path d="M5261 2055 c0 -5 6 -19 15 -30 13 -17 16 -18 24 -5 17 27 12 42 -9
30 -14 -7 -21 -6 -24 3 -3 6 -6 8 -6 2z"/>
<path d="M5451 1635 c0 -5 3 -16 8 -24 5 -8 0 -28 -14 -55 -13 -22 -26 -67
-30 -98 l-6 -57 28 3 c15 2 34 4 41 5 7 0 10 5 7 11 -3 5 0 7 8 4 8 -3 20 2
27 11 10 13 8 25 -14 76 -14 33 -26 63 -26 66 0 14 39 -31 50 -58 7 -16 15
-29 19 -29 16 0 52 33 66 60 14 28 14 30 -7 41 -13 7 -48 13 -80 13 -47 1 -59
4 -67 21 -5 11 -10 16 -10 10z m9 -210 c-7 -9 -15 -13 -17 -11 -7 7 7 26 19
26 6 0 6 -6 -2 -15z"/>
<path d="M5238 1417 c4 -14 7 -16 13 -5 12 19 11 25 -5 25 -8 0 -11 -8 -8 -20z"/>
<path d="M4120 4921 c0 -5 9 -13 20 -16 28 -9 25 -23 -7 -28 -41 -6 0 -7 417
-11 360 -4 581 -18 803 -51 140 -20 257 -46 257 -56 0 -5 7 -9 15 -9 44 0 359
-142 528 -238 184 -105 511 -347 688 -510 l66 -61 109 -7 c182 -12 163 -25
-26 -18 -96 3 -202 6 -235 7 -47 0 -63 4 -74 19 -10 15 -23 19 -55 17 -23 -2
-47 0 -53 4 -7 4 -24 5 -38 1 -15 -4 -25 -2 -25 5 0 6 -7 11 -16 11 -8 0 -12
-4 -9 -10 4 -6 -21 -10 -67 -10 -89 0 -289 -28 -303 -42 -7 -7 1 -8 25 -4 62
13 204 24 220 17 9 -3 -6 -9 -35 -14 -92 -14 -150 -25 -190 -36 -22 -6 -91
-11 -154 -11 -63 0 -112 -2 -110 -4 2 -2 63 -9 134 -16 72 -6 141 -13 155 -15
14 -2 52 -6 85 -10 165 -17 599 -115 825 -185 69 -21 157 -43 197 -49 43 -7
243 -11 496 -11 448 0 591 -8 697 -40 71 -21 147 -67 133 -80 -13 -14 -378
-32 -778 -39 -346 -6 -520 -3 -775 13 -385 23 -576 37 -650 46 -90 11 -296 30
-395 35 -33 2 -78 6 -100 9 -35 5 -37 4 -15 -5 14 -6 54 -17 90 -24 36 -7 58
-14 50 -14 -19 -1 -439 52 -614 78 -170 25 -171 26 -171 164 0 56 4 113 8 127
4 14 -2 3 -14 -25 -18 -43 -20 -61 -14 -125 4 -41 13 -87 21 -102 20 -39 0
-35 524 -103 107 -13 247 -32 310 -40 155 -20 465 -50 750 -72 514 -40 1805
-16 2000 37 25 7 36 6 42 -3 13 -20 9 -26 -24 -36 -18 -5 -27 -10 -19 -10 8
-1 29 4 46 10 31 12 32 13 18 40 -8 16 -19 29 -24 29 -5 0 -17 15 -25 34 -19
38 -120 109 -244 171 -122 62 -340 108 -790 170 -125 17 -227 37 -284 56 -49
16 -106 29 -128 29 -71 0 -176 71 -204 139 -25 59 -67 96 -134 116 l-25 8 20
-23 c20 -22 20 -22 -18 1 -20 13 -61 41 -90 61 -412 289 -781 518 -836 518
-11 0 -35 9 -53 20 -30 17 -239 90 -260 90 -5 0 -7 -4 -4 -8 5 -8 -132 11
-174 23 -16 5 72 -3 124 -11 60 -9 -76 36 -158 52 -67 13 -195 16 -760 20
-373 3 -683 7 -687 10 -5 3 -9 1 -9 -5z m1638 -168 c-15 -2 -42 -2 -60 0 -18
2 -6 4 27 4 33 0 48 -2 33 -4z m760 -818 c-10 -11 -118 -15 -118 -5 0 6 28 10
62 10 34 0 59 -2 56 -5z m52 1 c0 -3 -4 -8 -10 -11 -5 -3 -10 -1 -10 4 0 6 5
11 10 11 6 0 10 -2 10 -4z m42 -8 c-9 -9 -15 -9 -24 0 -9 9 -7 12 12 12 19 0
21 -3 12 -12z m63 2 c-3 -5 -10 -10 -16 -10 -5 0 -9 5 -9 10 0 6 7 10 16 10 8
0 12 -4 9 -10z"/>
<path d="M4320 4768 c0 -5 181 -7 403 -6 221 1 355 4 297 5 -260 7 -700 7
-700 1z"/>
<path d="M4288 4763 c7 -3 16 -2 19 1 4 3 -2 6 -13 5 -11 0 -14 -3 -6 -6z"/>
<path d="M5318 4743 c12 -2 32 -2 45 0 12 2 2 4 -23 4 -25 0 -35 -2 -22 -4z"/>
<path d="M5568 4743 c7 -3 16 -2 19 1 4 3 -2 6 -13 5 -11 0 -14 -3 -6 -6z"/>
<path d="M4471 4560 c52 -63 101 -124 111 -135 81 -98 183 -229 285 -368 l122
-165 143 -4 c265 -6 669 3 662 14 -4 7 -2 8 4 4 18 -11 152 -18 152 -8 0 11
-182 24 -190 14 -3 -4 -45 -4 -95 -1 l-90 5 80 3 c98 3 67 16 -67 26 -49 4
-88 11 -88 17 0 15 188 2 375 -26 128 -19 184 -20 228 -1 20 8 61 18 91 21 73
9 72 20 -1 16 -42 -2 -54 0 -43 7 12 9 9 11 -15 12 -16 1 -39 3 -50 5 -11 2
-50 8 -86 13 -36 6 -70 11 -75 12 -5 1 -11 1 -14 -1 -7 -2 -148 -2 -180 0
l-25 2 25 7 c14 5 37 7 52 5 15 -2 30 2 34 7 3 6 -9 44 -27 85 -30 65 -38 74
-67 80 -41 8 -48 1 -34 -31 7 -14 12 -37 12 -50 0 -13 5 -27 10 -30 12 -7 14
-35 3 -35 -10 0 -49 60 -87 133 -19 37 -36 57 -47 57 -10 0 -22 6 -26 14 -4 8
-24 18 -43 24 -19 5 -43 13 -52 17 -13 5 -18 2 -19 -11 0 -17 -1 -16 -9 2 -5
12 -14 25 -20 29 -13 8 -6 -43 15 -115 45 -150 44 -187 0 -170 -15 6 -47 10
-71 10 -25 0 -43 4 -39 9 3 5 -4 12 -15 16 -11 4 -18 10 -16 14 3 4 0 13 -6
21 -8 12 -9 12 -4 -2 3 -12 0 -18 -9 -18 -8 0 -15 4 -15 10 0 5 -6 7 -12 5 -9
-4 -14 10 -15 46 -4 90 -45 189 -97 237 -28 25 -51 35 -94 42 -129 20 -150 10
-200 -92 -20 -40 -32 -52 -45 -50 -14 3 -18 -1 -15 -15 2 -10 9 -17 16 -16 6
2 9 -4 5 -13 -6 -16 -9 -14 -70 64 -10 12 -37 43 -60 68 -43 45 -43 46 -43
119 0 41 -4 77 -10 80 -5 3 -10 1 -10 -4 0 -6 -7 -11 -15 -11 -9 0 -18 -7 -21
-15 -9 -22 -19 -19 -34 10 -10 19 -16 22 -23 13 -7 -10 -10 -10 -14 0 -2 6 -9
9 -15 6 -6 -4 -8 2 -3 17 4 17 3 20 -3 10 -12 -16 -27 3 -16 21 5 7 3 8 -5 3
-8 -4 -25 4 -43 21 -17 16 11 -23 63 -86z m814 -510 c3 -6 -1 -7 -9 -4 -18 7
-21 14 -7 14 6 0 13 -4 16 -10z m175 -95 c0 -12 -18 -15 -107 -14 -60 1 -139
-2 -178 -7 l-70 -9 65 -6 65 -6 -85 -1 c-47 -1 -96 -5 -109 -9 -16 -4 -22 -2
-18 4 4 6 19 13 34 16 16 3 48 10 73 16 25 6 101 15 170 20 69 4 133 9 143 10
9 0 17 -6 17 -14z m-50 -34 c0 -7 -30 -11 -80 -11 -44 0 -80 4 -80 8 0 4 36 9
80 11 52 1 80 -1 80 -8z m55 -1 c18 -8 17 -9 -7 -9 -15 -1 -30 4 -33 9 -7 12
12 12 40 0z"/>
<path d="M4540 4571 c0 -5 5 -13 10 -16 6 -3 10 -2 10 4 0 5 -4 13 -10 16 -5
3 -10 2 -10 -4z"/>
<path d="M6168 4063 c7 -3 16 -2 19 1 4 3 -2 6 -13 5 -11 0 -14 -3 -6 -6z"/>
<path d="M5855 4050 c-3 -5 1 -10 9 -10 9 0 16 5 16 10 0 6 -4 10 -9 10 -6 0
-13 -4 -16 -10z"/>
<path d="M6108 4003 c6 -2 18 -2 25 0 6 3 1 5 -13 5 -14 0 -19 -2 -12 -5z"/>
<path d="M4740 3996 c0 -2 7 -9 15 -16 9 -7 15 -8 15 -2 0 5 -7 12 -15 16 -8
3 -15 4 -15 2z"/>
<path d="M6180 3990 c0 -5 5 -10 11 -10 5 0 7 5 4 10 -3 6 -8 10 -11 10 -2 0
-4 -4 -4 -10z"/>
<path d="M6260 3979 c0 -5 5 -7 10 -4 6 3 10 8 10 11 0 2 -4 4 -10 4 -5 0 -10
-5 -10 -11z"/>
<path d="M6693 3954 c3 -4 48 -8 99 -9 83 -3 86 -2 33 5 -76 10 -140 12 -132
4z"/>
<path d="M4972 3818 c3 -7 18 -14 34 -16 l29 -2 -25 14 c-31 19 -43 20 -38 4z"/>
<path d="M5437 3820 c-38 -7 -54 -16 -46 -25 3 -2 72 -12 155 -20 361 -37 997
-125 1059 -146 32 -11 280 -39 330 -38 22 0 10 7 -45 25 -205 66 -429 116
-783 174 -226 38 -252 40 -436 39 -108 -1 -213 -5 -234 -9z m318 -10 c3 -5 17
-10 30 -10 13 0 25 -4 27 -9 2 -5 50 -12 108 -15 222 -12 367 -26 420 -41 33
-8 41 -12 20 -10 -19 3 -102 9 -185 15 -82 5 -199 14 -260 19 -60 6 -182 15
-270 21 -88 6 -171 14 -185 17 -23 5 -24 6 -5 13 29 12 293 12 300 0z m167 -9
c4 -3 -17 -7 -46 -9 -40 -2 -55 1 -59 12 -5 12 2 14 46 9 29 -3 55 -8 59 -12z"/>
<path d="M5080 3790 c14 -4 34 -8 45 -9 16 -1 17 1 5 9 -8 5 -28 9 -45 9 -29
-1 -29 -1 -5 -9z"/>
<path d="M4751 3773 c0 -11 3 -13 6 -5 2 6 9 10 14 6 5 -3 9 0 9 5 0 6 -7 11
-15 11 -8 0 -15 -8 -14 -17z"/>
<path d="M5620 3470 c6 -11 13 -20 15 -20 2 0 3 9 2 20 -1 11 -7 20 -14 20
-11 0 -11 -5 -3 -20z"/>
<path d="M5878 3443 c7 -3 16 -2 19 1 4 3 -2 6 -13 5 -11 0 -14 -3 -6 -6z"/>
<path d="M8700 3360 c-12 -8 -10 -9 10 -9 14 1 39 5 55 9 29 7 29 8 -10 9 -22
0 -47 -4 -55 -9z"/>
<path d="M6115 3340 c10 -11 20 -20 23 -20 3 0 -3 9 -13 20 -10 11 -20 20 -23
20 -3 0 3 -9 13 -20z"/>
<path d="M8600 3350 l-45 -7 52 -1 c28 -1 55 3 58 8 7 11 4 11 -65 0z"/>
<path d="M6768 3343 c12 -2 30 -2 40 0 9 3 -1 5 -23 4 -22 0 -30 -2 -17 -4z"/>
<path d="M6893 3333 c9 -2 23 -2 30 0 6 3 -1 5 -18 5 -16 0 -22 -2 -12 -5z"/>
<path d="M7063 3323 c15 -2 37 -2 50 0 12 2 0 4 -28 4 -27 0 -38 -2 -22 -4z"/>
<path d="M7140 3326 c0 -2 9 -6 20 -9 11 -3 18 -1 14 4 -5 9 -34 13 -34 5z"/>
<path d="M7338 3313 c12 -2 30 -2 40 0 9 3 -1 5 -23 4 -22 0 -30 -2 -17 -4z"/>
<path d="M7770 3310 l-75 -6 83 -2 c53 -1 81 2 77 8 -3 6 -7 9 -8 8 -1 -1 -36
-4 -77 -8z"/>
<path d="M7413 3303 c9 -2 25 -2 35 0 9 3 1 5 -18 5 -19 0 -27 -2 -17 -5z"/>
<path d="M7528 3303 c28 -2 76 -2 105 0 28 2 5 3 -53 3 -58 0 -81 -1 -52 -3z"/>
<path d="M6178 3289 c-7 -4 -6 -9 1 -13 6 -4 16 -4 21 -1 6 3 10 2 10 -3 0
-10 60 -26 67 -18 3 2 0 13 -6 25 -8 15 -20 19 -47 18 -20 -1 -40 -5 -46 -8z"/>
<path d="M6840 3258 c0 -9 5 -20 10 -23 13 -8 13 5 0 25 -8 13 -10 13 -10 -2z"/>
<path d="M8906 3062 c-10 -37 -20 -74 -23 -82 -5 -11 -1 -10 15 3 14 13 22 37
27 78 4 33 5 62 3 64 -2 2 -12 -26 -22 -63z"/>
</g>
</svg>
